HIERARCHY
ROOT Hips
{
	OFFSET 0.000000 0.000000 0.000000
	CHANNELS 6 Xposition Yposition Zposition Xrotation Yrotation Zrotation
	JOINT LeftUpLeg_virtual
	{
		OFFSET 0.000000 0.000000 0.000000
		CHANNELS 3 Xrotation Yrotation Zrotation
		JOINT LeftUpLeg
		{
			OFFSET 15.427100 -6.655098 0.678600
			CHANNELS 3 Xrotation Yrotation Zrotation
			JOINT LeftLeg
			{
				OFFSET 4.081073 -39.591068 13.024000
				CHANNELS 3 Xrotation Yrotation Zrotation
				JOINT LeftFoot
				{
					OFFSET -4.081074 -37.707932 -15.979700
					CHANNELS 3 Xrotation Yrotation Zrotation
					JOINT LeftToeBase
					{
						OFFSET 5.346399 -15.068900 20.645000
						CHANNELS 3 Xrotation Yrotation Zrotation
						JOINT LeftToe_End
						{
							OFFSET 2.754700 0.931300 11.300900
							CHANNELS 3 Xrotation Yrotation Zrotation
							End Site
							{
								OFFSET 0 0 0
							}
						}
					}
				}
			}
		}
	}
	JOINT RightUpLeg_virtual
	{
		OFFSET 0.000000 0.000000 0.000000
		CHANNELS 3 Xrotation Yrotation Zrotation
		JOINT RightUpLeg
		{
			OFFSET -15.569500 -6.655098 0.678600
			CHANNELS 3 Xrotation Yrotation Zrotation
			JOINT RightLeg
			{
				OFFSET -4.081825 -39.591045 13.023800
				CHANNELS 3 Xrotation Yrotation Zrotation
				JOINT RightFoot
				{
					OFFSET 4.081824 -37.707954 -15.979600
					CHANNELS 3 Xrotation Yrotation Zrotation
					JOINT RightToeBase
					{
						OFFSET -5.346400 -15.068900 20.645000
						CHANNELS 3 Xrotation Yrotation Zrotation
						JOINT RightToe_End
						{
							OFFSET -2.754700 0.931300 11.300900
							CHANNELS 3 Xrotation Yrotation Zrotation
							End Site
							{
								OFFSET 0 0 0
							}
						}
					}
				}
			}
		}
	}
	JOINT Spine_virtual
	{
		OFFSET 0.000000 0.000000 0.000000
		CHANNELS 3 Xrotation Yrotation Zrotation
		JOINT Spine
		{
			OFFSET -0.279200 12.230698 -2.892100
			CHANNELS 3 Xrotation Yrotation Zrotation
			JOINT Spine1
			{
				OFFSET -0.232667 10.192268 -1.242267
				CHANNELS 3 Xrotation Yrotation Zrotation
				JOINT Spine1_split
				{
					OFFSET -0.232667 10.192268 -1.242267
					CHANNELS 3 Xrotation Yrotation Zrotation
					JOINT Spine2
					{
						OFFSET -0.232667 10.192268 -1.242267
						CHANNELS 3 Xrotation Yrotation Zrotation
						JOINT Neck_virtual
						{
							OFFSET 0.000000 0.000000 0.000000
							CHANNELS 3 Xrotation Yrotation Zrotation
							JOINT Neck
							{
								OFFSET -0.418800 17.814194 8.416900
								CHANNELS 3 Xrotation Yrotation Zrotation
								JOINT Head
								{
									OFFSET 0.000000 7.031097 3.806800
									CHANNELS 3 Xrotation Yrotation Zrotation
									JOINT HeadTop_End
									{
										OFFSET 0.000000 24.646606 12.978600
										CHANNELS 3 Xrotation Yrotation Zrotation
										End Site
										{
											OFFSET 0 0 0
										}
									}
								}
							}
						}
						JOINT LeftShoulder_virtual
						{
							OFFSET 0.000000 0.000000 0.000000
							CHANNELS 3 Xrotation Yrotation Zrotation
							JOINT LeftShoulder
							{
								OFFSET 8.476499 7.247704 -3.868750
								CHANNELS 3 Xrotation Yrotation Zrotation
								JOINT LeftShoulder_split
								{
									OFFSET 8.476499 7.247704 -3.868750
									CHANNELS 3 Xrotation Yrotation Zrotation
									JOINT LeftArm
									{
										OFFSET 9.308998 -2.777710 0.208600
										CHANNELS 3 Xrotation Yrotation Zrotation
										JOINT LeftForeArm
										{
											OFFSET 29.972298 0.000000 0.000000
											CHANNELS 3 Xrotation Yrotation Zrotation
											JOINT LeftHand
											{
												OFFSET 26.026505 0.000000 0.000000
												CHANNELS 3 Xrotation Yrotation Zrotation
												End Site
												{
													OFFSET 0 0 0
												}
											}
										}
									}
								}
							}
						}
						JOINT RightShoulder_virtual
						{
							OFFSET 0.000000 0.000000 0.000000
							CHANNELS 3 Xrotation Yrotation Zrotation
							JOINT RightShoulder
							{
								OFFSET -7.570500 7.247704 -3.868750
								CHANNELS 3 Xrotation Yrotation Zrotation
								JOINT RightShoulder_split
								{
									OFFSET -7.570500 7.247704 -3.868750
									CHANNELS 3 Xrotation Yrotation Zrotation
									JOINT RightArm
									{
										OFFSET -9.308998 -2.777710 0.208500
										CHANNELS 3 Xrotation Yrotation Zrotation
										JOINT RightForeArm
										{
											OFFSET -29.972300 0.000000 0.000000
											CHANNELS 3 Xrotation Yrotation Zrotation
											JOINT RightHand
											{
												OFFSET -26.026505 0.000000 0.000000
												CHANNELS 3 Xrotation Yrotation Zrotation
												End Site
												{
													OFFSET 0 0 0
												}
											}
										}
									}
								}
							}
						}
					}
				}
			}
		}
	}
}
MOTION
Frames: 10
Frame Time: 0.03333333
-2.747408 88.039627 14.095562 0.000000 0.000000 0.000000 175.407946 -62.080395 176.890807 -4.874522 14.703319 16.955951 21.563192 16.228207 1.576401 -11.633320 4.297438 -26.065214 -5.451103 1.436886 -0.252682 0.000000 0.000000 0.000000 175.070521 -60.910322 176.233128 -15.068067 -18.500768 -19.097583 18.338291 -11.305035 2.446243 -0.465337 -0.672106 9.926519 -0.456774 -4.965080 4.217649 0.000000 0.000000 0.000000 174.455435 -64.665881 174.554609 9.855265 -0.363196 -0.058684 -0.123821 -1.194407 2.059211 0.874856 -0.950271 0.051143 0.000000 0.000000 0.000000 -2.210508 -1.158906 2.496857 -4.291896 21.951431 4.386325 2.269994 23.637043 -7.956790 0.000000 0.000000 0.000000 -2.166650 -0.685808 2.120505 0.912278 1.900870 -8.062974 1.879879 -3.549891 -1.674234 -1.030979 -7.322911 -58.937675 4.891295 -16.248479 -6.100954 0.000000 0.000000 0.000000 -1.772563 -1.101896 1.732083 1.823156 -2.180933 18.933348 -2.961563 -1.634771 -0.516582 16.418330 27.999444 45.304614 16.305197 26.288292 -6.129598 0.000000 0.000000 0.000000 
-2.575255 87.628769 11.342163 0.000000 0.000000 0.000000 176.070105 -58.607832 177.622280 -3.677437 15.680419 18.771318 22.748218 18.293265 1.697095 -9.584555 4.855827 -27.861866 -5.944717 1.685942 -0.216386 0.000000 0.000000 0.000000 175.762720 -57.416448 176.966049 -16.118915 -18.972013 -17.093237 19.319689 -10.518955 2.667717 0.061858 0.440082 8.980388 -1.303295 -5.034964 4.166137 0.000000 0.000000 0.000000 175.657248 -60.819966 175.861771 9.991731 -0.909237 -0.201559 -0.032790 -1.555780 2.606081 0.957372 -0.607748 -0.050739 0.000000 0.000000 0.000000 -2.233813 -1.516432 2.993995 -4.405986 19.359312 3.179851 1.622243 19.761023 -6.175162 0.000000 0.000000 0.000000 -2.036874 -1.030363 2.659560 0.971241 2.425796 -8.965270 1.589281 -3.629845 -1.482899 0.243851 -7.986817 -59.236209 4.199182 -16.260379 -6.029154 0.000000 0.000000 0.000000 -1.616447 -1.418182 2.243476 1.832818 -2.461012 18.320360 -2.799548 -1.475453 -0.453338 15.589702 28.993784 45.551529 16.006909 26.111687 -6.365406 0.000000 0.000000 0.000000 
-2.319564 87.099495 8.352085 0.000000 0.000000 0.000000 176.754149 -55.101281 178.231068 -3.365973 16.094998 21.178561 25.716186 20.031335 1.723475 -6.981712 4.915870 -28.619177 -5.640412 2.130701 -1.126129 0.000000 0.000000 0.000000 176.515816 -54.026667 177.571641 -16.582666 -19.369875 -14.365233 20.352797 -9.254000 2.720797 -0.453170 1.419171 7.783844 -1.908186 -5.066828 3.892542 0.000000 0.000000 0.000000 176.821372 -56.963303 176.945476 10.285364 -1.515119 -0.305490 0.001715 -1.909805 3.043832 0.955254 -0.186898 -0.240113 0.000000 0.000000 0.000000 -2.286924 -1.884029 3.372330 -4.391378 16.413469 2.272775 1.112888 15.687339 -4.579205 0.000000 0.000000 0.000000 -1.947306 -1.384298 3.089113 1.041787 2.849055 -9.609368 1.419468 -3.723784 -1.184899 1.824737 -8.620392 -59.633528 3.607006 -16.632643 -6.048659 0.000000 0.000000 0.000000 -1.531861 -1.738577 2.665439 1.862545 -2.624769 17.908158 -2.805710 -1.243751 -0.390105 14.859695 29.922864 45.746814 15.588995 26.006983 -6.325170 0.000000 0.000000 0.000000 
-2.019124 86.521126 5.166153 0.000000 0.000000 0.000000 177.433561 -51.643231 178.739794 -4.314748 15.506066 24.023730 30.425873 20.979508 1.752437 -3.779473 4.226534 -28.664286 -4.266822 2.718824 -3.127298 0.000000 0.000000 0.000000 177.354673 -50.765777 178.140267 -16.367515 -19.633908 -11.123591 21.390196 -7.752668 2.566190 -2.187390 2.054100 6.191549 -1.815164 -5.047144 3.406925 0.000000 0.000000 0.000000 177.880543 -53.175075 177.788362 10.696920 -2.062544 -0.352764 -0.079255 -2.186375 3.243197 0.889056 0.346427 -0.289597 0.000000 0.000000 0.000000 -2.357051 -2.175992 3.499645 -4.200568 13.237606 1.783817 0.742049 11.604558 -3.268029 0.000000 0.000000 0.000000 -1.937642 -1.668356 3.286556 1.097674 3.155828 -9.879265 1.279768 -3.688425 -0.890904 3.459291 -8.940056 -60.083774 3.111418 -17.309479 -6.194550 0.000000 0.000000 0.000000 -1.537306 -1.999716 2.866147 1.880611 -2.672209 17.733428 -2.815652 -1.026193 -0.328015 14.235058 30.635079 45.866575 15.155223 26.019616 -6.100984 0.000000 0.000000 0.000000 
-1.718763 86.004272 1.873581 0.000000 0.000000 0.000000 178.190237 -48.235950 179.252673 -6.338540 13.778498 26.677645 36.128313 21.058766 1.899013 0.122019 2.735869 -28.083655 -2.699006 3.321826 -5.833566 0.000000 0.000000 0.000000 178.219183 -47.481860 178.684251 -15.679925 -19.614476 -7.656677 22.572891 -6.112134 2.277770 -4.689254 2.341628 4.471209 -1.336676 -4.993244 2.717393 0.000000 0.000000 0.000000 178.806634 -49.507639 178.346703 11.185556 -2.449380 -0.310313 -0.292781 -2.353553 3.153648 0.771304 0.755279 -0.262567 0.000000 0.000000 0.000000 -2.447758 -2.333517 3.341622 -3.806399 10.003910 1.745801 0.489269 7.731526 -2.300639 0.000000 0.000000 0.000000 -1.997257 -1.827683 3.204165 1.134147 3.321240 -9.798112 1.081121 -3.448490 -0.665410 4.875290 -8.712775 -60.611727 2.743348 -18.097431 -6.492920 0.000000 0.000000 0.000000 -1.627676 -2.145117 2.789153 1.846808 -2.667356 17.734993 -2.716469 -0.820744 -0.334343 13.698259 31.115722 45.868658 14.793203 26.203252 -5.831182 0.000000 0.000000 0.000000 
-1.532567 85.685204 -1.423252 0.000000 0.000000 0.000000 178.961898 -44.835370 179.655763 -8.743316 11.335456 28.303966 41.526136 20.715617 2.271471 3.686835 0.959465 -26.179739 -2.349186 3.844894 -8.493627 0.000000 0.000000 0.000000 179.022550 -44.259349 179.081577 -14.705677 -19.142736 -4.204241 23.869995 -4.379011 1.924212 -7.321939 2.343980 3.017950 -0.935080 -4.935604 1.900837 0.000000 0.000000 0.000000 179.576725 -45.959452 178.701217 11.706256 -2.578675 -0.157582 -0.578015 -2.377648 2.812486 0.655758 0.960311 -0.196048 0.000000 0.000000 0.000000 -2.557572 -2.324460 2.933206 -3.180868 6.817173 2.088903 0.351265 4.170202 -1.709526 0.000000 0.000000 0.000000 -2.101487 -1.825991 2.865935 1.150538 3.321953 -9.494673 0.891488 -2.998127 -0.541641 6.048870 -7.824685 -61.214805 2.557241 -18.625009 -6.916056 0.000000 0.000000 0.000000 -1.762311 -2.134624 2.464259 1.765492 -2.687787 17.844189 -2.456182 -0.685485 -0.468822 13.278238 31.557987 45.608629 14.546262 26.422317 -5.582419 0.000000 0.000000 0.000000 
-1.450025 85.629303 -4.681362 0.000000 0.000000 0.000000 179.665708 -41.328310 179.887088 -10.979345 8.764947 28.270261 45.967901 20.236630 2.752792 5.853907 -0.461976 -22.844638 -3.820944 4.346273 -10.448973 0.000000 0.000000 0.000000 179.661924 -41.019292 179.227401 -13.553015 -18.053150 -0.892318 25.069263 -2.491673 1.668448 -9.679066 2.135309 2.121817 -1.074801 -4.869524 1.095793 0.000000 0.000000 0.000000 -179.786343 -42.464270 178.911683 12.221608 -2.423867 0.100897 -0.869594 -2.240818 2.314971 0.564798 1.028140 -0.055913 0.000000 0.000000 0.000000 -2.667859 -2.144986 2.363462 -2.357743 3.802311 2.646433 0.319562 0.988766 -1.443416 0.000000 0.000000 0.000000 -2.196660 -1.673063 2.372559 1.145225 3.194746 -9.137655 0.702305 -2.412510 -0.403226 7.108236 -6.331071 -61.916621 2.585934 -18.602107 -7.416250 0.000000 0.000000 0.000000 -1.904824 -1.962190 1.995560 1.659182 -2.784706 17.937549 -2.169782 -0.780075 -0.631811 13.081424 32.178742 44.959577 14.432494 26.492736 -5.385272 0.000000 0.000000 0.000000 
-1.545614 85.829010 -7.845837 0.000000 0.000000 0.000000 -179.783256 -37.716964 179.885873 -13.113340 6.792093 26.677851 49.457704 19.738924 2.920089 5.943280 -1.217735 -18.332800 -6.146785 4.773122 -11.537643 0.000000 0.000000 0.000000 -179.934449 -37.739561 179.066824 -12.182529 -16.239166 2.154336 25.892772 -0.436055 1.561747 -11.863464 1.867083 1.671795 -1.767201 -4.758754 0.458707 0.000000 0.000000 0.000000 -179.290321 -38.911547 179.021908 12.657438 -2.041968 0.422581 -1.094516 -1.958071 1.777198 0.518732 0.930907 0.008154 0.000000 0.000000 0.000000 -2.764930 -1.829432 1.757923 -1.434767 1.062487 3.244710 0.404488 -1.780392 -1.448786 0.000000 0.000000 0.000000 -2.249220 -1.390685 1.839873 1.119590 2.983454 -8.873331 0.674606 -1.875765 -0.244496 8.136358 -4.505533 -62.715671 2.886208 -18.047880 -7.904417 0.000000 0.000000 0.000000 -2.026999 -1.650450 1.494487 1.559174 -3.052716 17.976371 -1.956851 -0.978763 -0.733007 13.193356 32.971919 43.980695 14.398739 26.275007 -5.218700 0.000000 0.000000 0.000000 
-1.770608 86.215195 -10.851688 0.000000 0.000000 0.000000 -179.506947 -33.927230 179.690556 -15.373340 5.804798 23.896694 52.243874 19.061890 2.629182 4.221959 -1.520840 -13.419973 -7.779753 4.922595 -11.822602 0.000000 0.000000 0.000000 -179.816218 -34.304693 178.688458 -10.521660 -13.746614 4.902618 26.235248 1.599711 1.712415 -14.206848 1.554484 0.966247 -1.814262 -4.588046 0.157098 0.000000 0.000000 0.000000 -178.994902 -35.288326 179.044885 12.973032 -1.520257 0.699329 -1.226255 -1.561147 1.296760 0.603430 0.833182 0.058083 0.000000 0.000000 0.000000 -2.802742 -1.422336 1.214588 -0.512916 -1.332431 3.697917 0.580546 -4.115094 -1.612835 0.000000 0.000000 0.000000 -2.283611 -1.020605 1.355623 1.065985 2.795351 -8.760560 0.759231 -1.412685 0.096304 9.303990 -2.592955 -63.576576 3.445812 -17.192573 -8.275847 0.000000 0.000000 0.000000 -2.105340 -1.250636 1.057207 1.506824 -3.519141 17.962378 -1.977920 -1.220859 -0.782760 13.693195 33.799335 42.908550 14.405907 25.753718 -5.036771 0.000000 0.000000 0.000000 
-2.150648 86.637924 -13.750328 0.000000 0.000000 0.000000 -179.523982 -30.163468 179.427171 -17.890584 5.381292 20.367904 54.206867 17.520195 2.203637 2.064661 -1.977702 -9.722726 -8.949226 4.777243 -10.861666 0.000000 0.000000 0.000000 -179.926417 -30.489828 178.272923 -8.824294 -10.836567 7.145741 26.062347 3.591951 2.184525 -16.546958 1.214250 -0.140766 -0.944776 -4.365324 0.105510 0.000000 0.000000 0.000000 -178.868557 -31.596349 179.059187 13.096072 -0.969879 0.821783 -1.264494 -1.098463 0.930820 0.690244 0.848818 0.104661 0.000000 0.000000 0.000000 -2.764569 -0.972953 0.799068 0.293187 -3.331186 3.915787 0.810305 -5.960227 -1.835424 0.000000 0.000000 0.000000 -2.295396 -0.606769 0.983407 0.990880 2.713333 -8.769483 0.952917 -1.050043 0.485942 10.472052 -0.870314 -64.487197 4.207685 -16.347641 -8.477368 0.000000 0.000000 0.000000 -2.141688 -0.813907 0.736394 1.510474 -4.177912 17.913909 -2.143413 -1.359368 -0.762163 14.444774 34.318265 42.107245 14.430025 25.148389 -4.823149 0.000000 0.000000 0.000000 
